<svg width="32" height="32" viewBox="0 0 32 32" xmlns="http://www.w3.org/2000/svg">
<path fill-rule="evenodd" clip-rule="evenodd" d="M16.4266 17.3859C15.5387 17.3859 14.6641 17.5838 13.8656 17.9627C13.0732 17.587 12.2001 17.3867 11.3063 17.3867C9.72211 17.3867 8.20277 18.016 7.08256 19.1362C5.96234 20.2564 5.33301 21.7758 5.33301 23.36V24.2133C5.33301 24.6846 5.71506 25.0667 6.18634 25.0667H19.5622V23.3599L17.2797 23.36C17.2797 21.7958 16.6662 20.2949 15.5724 19.1789C15.8524 19.1218 16.1384 19.0926 16.4265 19.0926C16.732 19.0926 17.0353 19.1254 17.3314 19.1897L17.8493 17.5579C17.3856 17.4442 16.908 17.386 16.4266 17.3859ZM15.0652 23.36C15.0739 21.3773 14.7483 20.4905 13.2188 19.5459C12.6306 19.2511 11.9766 19.0933 11.3063 19.0933C10.1748 19.0933 9.08951 19.5429 8.28935 20.343C7.4892 21.1432 7.03967 22.2284 7.03967 23.36H15.0652Z"/>
<path fill-rule="evenodd" clip-rule="evenodd" d="M15.8095 9.78206C16.3141 9.6568 16.845 9.68819 17.3314 9.87204C17.8177 10.0559 18.2366 10.3835 18.5322 10.8113C18.8278 11.2391 18.9862 11.7467 18.9862 12.2667C18.9862 12.7866 18.8278 13.2943 18.5322 13.7221C18.2366 14.1498 17.8177 14.4774 17.3314 14.6613C16.845 14.8451 16.3141 14.8765 15.8095 14.7513C15.5208 14.6796 15.2486 14.5587 15.0041 14.3953C15.3736 13.7534 15.573 13.0203 15.573 12.2667C15.573 11.513 15.3736 10.78 15.0041 10.138C15.2486 9.97463 15.5208 9.85369 15.8095 9.78206ZM15.3983 16.4077C14.8413 16.2694 14.3208 16.021 13.8663 15.6801C13.1321 16.2307 12.2348 16.5333 11.3063 16.5333C10.1748 16.5333 9.08951 16.0838 8.28935 15.2837C7.4892 14.4835 7.03967 13.3983 7.03967 12.2667C7.03967 11.1351 7.4892 10.0498 8.28935 9.24968C9.08951 8.44952 10.1748 8 11.3063 8C12.2348 8 13.1321 8.30263 13.8663 8.85325C14.3208 8.51238 14.8413 8.26392 15.3983 8.12565C16.2394 7.91688 17.1242 7.9692 17.9348 8.27563C18.7455 8.58206 19.4436 9.12808 19.9362 9.84102C20.4289 10.554 20.6928 11.4 20.6928 12.2667C20.6928 13.1333 20.4289 13.9794 19.9362 14.6923C19.4436 15.4053 18.7455 15.9513 17.9348 16.2577C17.1242 16.5641 16.2394 16.6165 15.3983 16.4077ZM9.49615 10.4565C9.97624 9.97638 10.6274 9.70667 11.3063 9.70667C11.9853 9.70667 12.6364 9.97638 13.1165 10.4565C13.5966 10.9366 13.8663 11.5877 13.8663 12.2667C13.8663 12.9456 13.5966 13.5968 13.1165 14.0769C12.6364 14.557 11.9853 14.8267 11.3063 14.8267C10.6274 14.8267 9.97624 14.557 9.49615 14.0769C9.01605 13.5968 8.74634 12.9456 8.74634 12.2667C8.74634 11.5877 9.01605 10.9366 9.49615 10.4565Z"/>
<path d="M22.4045 16.5332C22.739 16.5367 23.0722 16.5739 23.3985 16.6439C23.468 16.6588 23.5309 16.6942 23.5785 16.7451C23.6261 16.796 23.6559 16.86 23.6637 16.9279L23.7412 17.5962C23.7521 17.6905 23.786 17.7809 23.84 17.8604C23.894 17.9398 23.9666 18.0059 24.0521 18.0534C24.1376 18.101 24.2335 18.1285 24.3322 18.1339C24.4308 18.1393 24.5293 18.1224 24.6199 18.0846L25.258 17.8154C25.3228 17.788 25.3949 17.7806 25.4643 17.7943C25.5337 17.8079 25.597 17.8419 25.6454 17.8916C26.1066 18.3647 26.45 18.9321 26.6498 19.551C26.6708 19.6161 26.6702 19.6858 26.648 19.7505C26.6259 19.8152 26.5834 19.8716 26.5263 19.9121L25.9603 20.3129C25.8806 20.3691 25.8159 20.4424 25.7712 20.5271C25.7266 20.6117 25.7034 20.7053 25.7034 20.8001C25.7035 20.895 25.7268 20.9885 25.7715 21.0731C25.8162 21.1577 25.881 21.231 25.9607 21.2871L26.5273 21.6875C26.5844 21.728 26.627 21.7845 26.6491 21.8493C26.6712 21.9141 26.6718 21.9839 26.6508 22.049C26.451 22.6679 26.1077 23.2352 25.6467 23.7084C25.5984 23.7581 25.5353 23.7921 25.466 23.8059C25.3966 23.8196 25.3246 23.8123 25.2598 23.785L24.619 23.515C24.5286 23.4769 24.43 23.4597 24.3314 23.4649C24.2327 23.4701 24.1368 23.4976 24.0512 23.5451C23.9657 23.5926 23.893 23.6587 23.8391 23.7382C23.7851 23.8177 23.7515 23.9082 23.7408 24.0025L23.6637 24.6703C23.656 24.7376 23.6268 24.8009 23.5801 24.8516C23.5334 24.9022 23.4716 24.9378 23.4031 24.9535C22.7431 25.1042 22.0554 25.1042 21.3955 24.9535C21.3269 24.9378 21.2651 24.9022 21.2184 24.8516C21.1717 24.8009 21.1425 24.7376 21.1348 24.6703L21.0573 24.0034C21.0461 23.9095 21.0121 23.8194 20.9581 23.7404C20.9041 23.6614 20.8315 23.5957 20.7463 23.5484C20.661 23.5012 20.5654 23.4738 20.4672 23.4685C20.3689 23.4631 20.2707 23.48 20.1804 23.5176L19.5392 23.7872C19.4743 23.8145 19.4023 23.8218 19.333 23.808C19.2637 23.7943 19.2005 23.7603 19.1522 23.7106C18.691 23.2369 18.3477 22.6689 18.1482 22.0494C18.1271 21.9843 18.1277 21.9145 18.1498 21.8498C18.172 21.785 18.2146 21.7284 18.2717 21.6879L18.8387 21.2871C18.9184 21.231 18.9832 21.1577 19.0278 21.073C19.0725 20.9884 19.0958 20.8949 19.0958 20.8C19.0958 20.7051 19.0725 20.6116 19.0278 20.527C18.9832 20.4424 18.9184 20.369 18.8387 20.3129L18.2722 19.913C18.2149 19.8725 18.1723 19.816 18.15 19.7512C18.1278 19.6864 18.1272 19.6166 18.1482 19.5515C18.3482 18.9325 18.6918 18.3651 19.1531 17.892C19.2015 17.8424 19.2647 17.8085 19.334 17.7948C19.4033 17.7812 19.4753 17.7886 19.5401 17.8159L20.1781 18.085C20.2688 18.1228 20.3675 18.1396 20.4662 18.1341C20.5649 18.1286 20.6609 18.1009 20.7464 18.0533C20.8319 18.0057 20.9047 17.9396 20.9587 17.8601C21.0128 17.7806 21.0467 17.6901 21.0577 17.5957L21.1352 16.9279C21.143 16.8598 21.1729 16.7958 21.2205 16.7448C21.2682 16.6937 21.3312 16.6583 21.4009 16.6435C21.7282 16.5739 22.0618 16.5371 22.4045 16.5332ZM22.4045 17.1896C22.1976 17.1919 21.9912 17.2091 21.7869 17.2408L21.7373 17.6684C21.7145 17.8651 21.6439 18.054 21.5312 18.2197C21.4184 18.3854 21.2667 18.5234 21.0882 18.6224C20.9098 18.7215 20.7095 18.7789 20.5037 18.79C20.2979 18.8011 20.0922 18.7656 19.9033 18.6863L19.494 18.5139C19.2333 18.8176 19.0258 19.1601 18.8797 19.5278L19.2434 19.7847C19.4094 19.9019 19.5443 20.0549 19.6373 20.2314C19.7304 20.4078 19.7788 20.6029 19.7788 20.8007C19.7788 20.9985 19.7304 21.1935 19.6373 21.37C19.5443 21.5465 19.4094 21.6995 19.2434 21.8166L18.8797 22.0739C19.0255 22.4424 19.2329 22.7855 19.4936 23.0901L19.9065 22.9164C20.0949 22.8373 20.3001 22.8019 20.5054 22.813C20.7107 22.824 20.9104 22.8811 21.0886 22.9798C21.2667 23.0785 21.4181 23.216 21.5308 23.3811C21.6435 23.5463 21.7142 23.7346 21.7373 23.9308L21.7865 24.3614C22.1921 24.427 22.6064 24.427 23.012 24.3614L23.0612 23.9308C23.0838 23.7341 23.1542 23.5454 23.2668 23.3798C23.3794 23.2141 23.531 23.0763 23.7094 22.9773C23.8878 22.8784 24.0879 22.8212 24.2936 22.8103C24.4993 22.7994 24.7047 22.8351 24.8934 22.9146L25.3054 23.0879C25.5659 22.7839 25.7732 22.4413 25.9193 22.0735L25.5556 21.8162C25.3895 21.6991 25.2545 21.5461 25.1614 21.3696C25.0683 21.1931 25.0198 20.9981 25.0198 20.8002C25.0198 20.6024 25.0683 20.4073 25.1614 20.2308C25.2545 20.0544 25.3895 19.9014 25.5556 19.7843L25.9184 19.5274C25.7722 19.1597 25.5647 18.8172 25.304 18.5134L24.8956 18.6854C24.7069 18.7648 24.5013 18.8004 24.2955 18.7894C24.0897 18.7784 23.8895 18.7211 23.7111 18.6221C23.5326 18.5231 23.3809 18.3852 23.2682 18.2196C23.1554 18.0539 23.0849 17.8651 23.0621 17.6684L23.012 17.2413C22.8111 17.2097 22.608 17.1926 22.4045 17.1901V17.1896ZM22.3986 19.1589C22.8518 19.1589 23.2866 19.3318 23.6071 19.6396C23.9276 19.9474 24.1076 20.3648 24.1076 20.8C24.1076 21.2353 23.9276 21.6527 23.6071 21.9604C23.2866 22.2682 22.8518 22.4411 22.3986 22.4411C21.9453 22.4411 21.5106 22.2682 21.1901 21.9604C20.8695 21.6527 20.6895 21.2353 20.6895 20.8C20.6895 20.3648 20.8695 19.9474 21.1901 19.6396C21.5106 19.3318 21.9453 19.1589 22.3986 19.1589V19.1589ZM22.3986 19.8154C22.1266 19.8154 21.8658 19.9191 21.6735 20.1038C21.4812 20.2884 21.3731 20.5389 21.3731 20.8C21.3731 21.0612 21.4812 21.3116 21.6735 21.4963C21.8658 21.6809 22.1266 21.7847 22.3986 21.7847C22.6705 21.7847 22.9314 21.6809 23.1237 21.4963C23.316 21.3116 23.424 21.0612 23.424 20.8C23.424 20.5389 23.316 20.2884 23.1237 20.1038C22.9314 19.9191 22.6705 19.8154 22.3986 19.8154Z"/>
</svg>
