<svg width="32" height="32" viewBox="0 0 32 32" xmlns="http://www.w3.org/2000/svg">
<path d="M16.5923 12.7409C16.5923 12.5052 16.6859 12.2791 16.8526 12.1124C17.0193 11.9457 17.2454 11.852 17.4812 11.852H21.6293C21.8651 11.852 22.0911 11.9457 22.2578 12.1124C22.4245 12.2791 22.5182 12.5052 22.5182 12.7409C22.5182 12.9767 22.4245 13.2027 22.2578 13.3694C22.0911 13.5361 21.8651 13.6298 21.6293 13.6298H17.4812C17.2454 13.6298 17.0193 13.5361 16.8526 13.3694C16.6859 13.2027 16.5923 12.9767 16.5923 12.7409ZM17.4812 18.3705C17.2454 18.3705 17.0193 18.4642 16.8526 18.6309C16.6859 18.7976 16.5923 19.0237 16.5923 19.2594C16.5923 19.4952 16.6859 19.7213 16.8526 19.888C17.0193 20.0547 17.2454 20.1483 17.4812 20.1483H21.6293C21.8651 20.1483 22.0911 20.0547 22.2578 19.888C22.4245 19.7213 22.5182 19.4952 22.5182 19.2594C22.5182 19.0237 22.4245 18.7976 22.2578 18.6309C22.0911 18.4642 21.8651 18.3705 21.6293 18.3705H17.4812ZM9.18486 5.3335C8.16328 5.3335 7.18355 5.73931 6.46119 6.46168C5.73883 7.18404 5.33301 8.16377 5.33301 9.18535V22.815C5.33301 23.8366 5.73883 24.8163 6.46119 25.5386C7.18355 26.261 8.16328 26.6668 9.18486 26.6668H22.8145C23.8361 26.6668 24.8158 26.261 25.5382 25.5386C26.2605 24.8163 26.6663 23.8366 26.6663 22.815V9.18535C26.6663 8.16377 26.2605 7.18404 25.5382 6.46168C24.8158 5.73931 23.8361 5.3335 22.8145 5.3335H9.18486ZM7.11079 9.18535C7.11079 8.04046 8.03997 7.11127 9.18486 7.11127H22.8145C23.9594 7.11127 24.8886 8.04046 24.8886 9.18535V22.815C24.8886 23.3651 24.67 23.8926 24.2811 24.2816C23.8921 24.6705 23.3646 24.8891 22.8145 24.8891H9.18486C8.63478 24.8891 8.10723 24.6705 7.71827 24.2816C7.3293 23.8926 7.11079 23.3651 7.11079 22.815V9.18535Z"/>
<path fill-rule="evenodd" clip-rule="evenodd" d="M10.5664 10.5669C10.7291 10.4041 10.9929 10.4041 11.1556 10.5669L12.6666 12.0778L14.1775 10.5669C14.3402 10.4041 14.604 10.4041 14.7667 10.5669C14.9295 10.7296 14.9295 10.9934 14.7667 11.1561L13.2558 12.667L14.7667 14.178C14.9295 14.3407 14.9295 14.6045 14.7667 14.7672C14.604 14.9299 14.3402 14.9299 14.1775 14.7672L12.6666 13.2563L11.1556 14.7672C10.9929 14.9299 10.7291 14.9299 10.5664 14.7672C10.4037 14.6045 10.4037 14.3407 10.5664 14.178L12.0773 12.667L10.5664 11.1561C10.4037 10.9934 10.4037 10.7296 10.5664 10.5669Z"/>
<path fill-rule="evenodd" clip-rule="evenodd" d="M10.5664 17.2334C10.7291 17.0706 10.9929 17.0706 11.1556 17.2334L12.6666 18.7443L14.1775 17.2334C14.3402 17.0706 14.604 17.0706 14.7667 17.2334C14.9295 17.3961 14.9295 17.6599 14.7667 17.8226L13.2558 19.3335L14.7667 20.8445C14.9295 21.0072 14.9295 21.271 14.7667 21.4337C14.604 21.5965 14.3402 21.5965 14.1775 21.4337L12.6666 19.9228L11.1556 21.4337C10.9929 21.5965 10.7291 21.5965 10.5664 21.4337C10.4037 21.271 10.4037 21.0072 10.5664 20.8445L12.0773 19.3335L10.5664 17.8226C10.4037 17.6599 10.4037 17.3961 10.5664 17.2334Z"/>
</svg>
