<svg width="32" height="32" viewBox="0 0 32 32" fill="none" xmlns="http://www.w3.org/2000/svg">
<path fill-rule="evenodd" clip-rule="evenodd" d="M5.68014 5.68063C6.14298 5.21779 6.8934 5.21779 7.35625 5.68063L15.9997 14.3241L24.6431 5.68063C25.1059 5.21779 25.8564 5.21779 26.3192 5.68063C26.7821 6.14347 26.7821 6.89389 26.3192 7.35673L17.6758 16.0002L26.3192 24.6436C26.7821 25.1064 26.7821 25.8568 26.3192 26.3197C25.8564 26.7825 25.1059 26.7825 24.6431 26.3197L15.9997 17.6763L7.35625 26.3197C6.8934 26.7825 6.14298 26.7825 5.68014 26.3197C5.2173 25.8568 5.2173 25.1064 5.68014 24.6436L14.3236 16.0002L5.68014 7.35673C5.2173 6.89389 5.2173 6.14347 5.68014 5.68063Z" fill="#171616"/>
</svg>
