<svg width="40" height="40" viewBox="0 0 40 40" fill="none" xmlns="http://www.w3.org/2000/svg">
<path fill-rule="evenodd" clip-rule="evenodd" d="M11.1109 9.62947C10.718 9.62947 10.3412 9.78555 10.0634 10.0634C9.78555 10.3412 9.62947 10.718 9.62947 11.1109V14.0739C9.62947 14.4668 9.78555 14.8436 10.0634 15.1215C10.3412 15.3993 10.718 15.5554 11.1109 15.5554H14.0739C14.4668 15.5554 14.8436 15.3993 15.1215 15.1215C15.3993 14.8436 15.5554 14.4668 15.5554 14.0739V11.1109C15.5554 10.718 15.3993 10.3412 15.1215 10.0634C14.8436 9.78555 14.4668 9.62947 14.0739 9.62947H11.1109ZM7.96825 7.96825C8.80175 7.13476 9.93221 6.6665 11.1109 6.6665H14.0739C15.2527 6.6665 16.3831 7.13476 17.2166 7.96825C18.0501 8.80175 18.5184 9.93221 18.5184 11.1109V14.0739C18.5184 15.2527 18.0501 16.3831 17.2166 17.2166C16.3831 18.0501 15.2527 18.5184 14.0739 18.5184H11.1109C9.93221 18.5184 8.80175 18.0501 7.96825 17.2166C7.13476 16.3831 6.6665 15.2527 6.6665 14.0739V11.1109C6.6665 9.93221 7.13476 8.80175 7.96825 7.96825ZM25.9258 9.62947C25.5328 9.62947 25.156 9.78555 24.8782 10.0634C24.6004 10.3412 24.4443 10.718 24.4443 11.1109V14.0739C24.4443 14.4668 24.6004 14.8436 24.8782 15.1215C25.156 15.3993 25.5329 15.5554 25.9258 15.5554H28.8887C29.2816 15.5554 29.6585 15.3993 29.9363 15.1215C30.2141 14.8436 30.3702 14.4668 30.3702 14.0739V11.1109C30.3702 10.718 30.2141 10.3412 29.9363 10.0634C29.6585 9.78555 29.2816 9.62947 28.8887 9.62947H25.9258ZM22.7831 7.96825C23.6166 7.13476 24.747 6.6665 25.9258 6.6665H28.8887C30.0675 6.6665 31.1979 7.13476 32.0314 7.96825C32.8649 8.80175 33.3332 9.93221 33.3332 11.1109V14.0739C33.3332 15.2527 32.8649 16.3831 32.0314 17.2166C31.1979 18.0501 30.0675 18.5184 28.8887 18.5184H25.9258C24.747 18.5184 23.6166 18.0501 22.7831 17.2166C21.9496 16.3831 21.4813 15.2527 21.4813 14.0739V11.1109C21.4813 9.93221 21.9496 8.80175 22.7831 7.96825ZM11.1109 24.4443C10.718 24.4443 10.3412 24.6004 10.0634 24.8782C9.78555 25.156 9.62947 25.5328 9.62947 25.9258V28.8887C9.62947 29.2816 9.78555 29.6585 10.0634 29.9363C10.3412 30.2141 10.718 30.3702 11.1109 30.3702H14.0739C14.4668 30.3702 14.8436 30.2141 15.1215 29.9363C15.3993 29.6585 15.5554 29.2816 15.5554 28.8887V25.9258C15.5554 25.5329 15.3993 25.156 15.1215 24.8782C14.8436 24.6004 14.4668 24.4443 14.0739 24.4443H11.1109ZM7.96825 22.7831C8.80175 21.9496 9.93221 21.4813 11.1109 21.4813H14.0739C15.2527 21.4813 16.3831 21.9496 17.2166 22.7831C18.0501 23.6166 18.5184 24.747 18.5184 25.9258V28.8887C18.5184 30.0675 18.0501 31.1979 17.2166 32.0314C16.3831 32.8649 15.2527 33.3332 14.0739 33.3332H11.1109C9.93221 33.3332 8.80175 32.8649 7.96825 32.0314C7.13476 31.1979 6.6665 30.0675 6.6665 28.8887V25.9258C6.6665 24.747 7.13476 23.6166 7.96825 22.7831ZM25.9258 24.4443C25.5329 24.4443 25.156 24.6004 24.8782 24.8782C24.6004 25.156 24.4443 25.5329 24.4443 25.9258V28.8887C24.4443 29.2816 24.6004 29.6585 24.8782 29.9363C25.156 30.2141 25.5329 30.3702 25.9258 30.3702H28.8887C29.2816 30.3702 29.6585 30.2141 29.9363 29.9363C30.2141 29.6585 30.3702 29.2816 30.3702 28.8887V25.9258C30.3702 25.5329 30.2141 25.156 29.9363 24.8782C29.6585 24.6004 29.2816 24.4443 28.8887 24.4443H25.9258ZM22.7831 22.7831C23.6166 21.9496 24.747 21.4813 25.9258 21.4813H28.8887C30.0675 21.4813 31.1979 21.9496 32.0314 22.7831C32.8649 23.6166 33.3332 24.747 33.3332 25.9258V28.8887C33.3332 30.0675 32.8649 31.1979 32.0314 32.0314C31.1979 32.8649 30.0675 33.3332 28.8887 33.3332H25.9258C24.747 33.3332 23.6166 32.8649 22.7831 32.0314C21.9496 31.1979 21.4813 30.0675 21.4813 28.8887V25.9258C21.4813 24.747 21.9496 23.6166 22.7831 22.7831Z" fill="white"/>
</svg>
