<svg width="32" height="32" viewBox="0 0 32 32" fill="none" xmlns="http://www.w3.org/2000/svg">
<path fill-rule="evenodd" clip-rule="evenodd" d="M22.2362 5.57737C22.6249 5.41636 23.0415 5.3335 23.4622 5.3335C23.883 5.3335 24.2996 5.41636 24.6883 5.57737C25.077 5.73837 25.4302 5.97436 25.7277 6.27186C26.0252 6.56935 26.2611 6.92253 26.4221 7.31123C26.5831 7.69993 26.666 8.11654 26.666 8.53726C26.666 8.95798 26.5831 9.37459 26.4221 9.76329C26.2611 10.152 26.0252 10.5052 25.7277 10.8027L19.2973 17.233C18.808 17.7223 18.1862 18.0547 17.5088 18.1902C17.5087 18.1902 17.5089 18.1902 17.5088 18.1902L14.5356 18.7853C14.1675 18.8589 13.7869 18.7438 13.5214 18.4784C13.2559 18.213 13.1406 17.8325 13.2142 17.4643L13.8081 14.4911C13.9441 13.8136 14.2776 13.1906 14.7665 12.7022L21.1968 6.27186C21.4943 5.97436 21.8475 5.73837 22.2362 5.57737ZM23.4622 7.57913C23.3364 7.57913 23.2118 7.60391 23.0956 7.65206C22.9793 7.70021 22.8737 7.77079 22.7847 7.85976L21.7672 8.87735L23.1225 10.232L24.1398 9.21476C24.2287 9.12579 24.2993 9.02017 24.3474 8.90392C24.3956 8.78768 24.4204 8.66309 24.4204 8.53726C24.4204 8.41143 24.3956 8.28684 24.3474 8.1706C24.2993 8.05435 24.2287 7.94873 24.1398 7.85976C24.0508 7.77079 23.9452 7.70021 23.8289 7.65206C23.7127 7.60391 23.5881 7.57913 23.4622 7.57913ZM21.5346 11.8199L20.1793 10.4653L16.3544 14.2901C16.1791 14.4652 16.059 14.6887 16.0102 14.9315C16.0101 14.9317 16.0102 14.9314 16.0102 14.9315L15.7462 16.2528L17.0681 15.9882C17.3113 15.9396 17.5339 15.8206 17.7094 15.6451L21.5346 11.8199Z" fill="#171616"/>
<path fill-rule="evenodd" clip-rule="evenodd" d="M8.70146 9.82474C8.40367 9.82474 8.11808 9.94303 7.90751 10.1536C7.69694 10.3642 7.57864 10.6498 7.57864 10.9476V23.2985C7.57864 23.5963 7.69694 23.8819 7.90751 24.0925C8.11808 24.3031 8.40367 24.4214 8.70146 24.4214H21.0524C21.3502 24.4214 21.6358 24.3031 21.8464 24.0925C22.057 23.8819 22.1753 23.5963 22.1753 23.2985V19.9301C22.1753 19.31 22.678 18.8073 23.2981 18.8073C23.9182 18.8073 24.4209 19.31 24.4209 19.9301V23.2985C24.4209 24.1919 24.066 25.0487 23.4343 25.6804C22.8026 26.3121 21.9458 26.667 21.0524 26.667H8.70146C7.80809 26.667 6.95131 26.3121 6.3196 25.6804C5.6879 25.0487 5.33301 24.1919 5.33301 23.2985V10.9476C5.33301 10.0542 5.6879 9.19741 6.3196 8.5657C6.95131 7.93399 7.80809 7.5791 8.70146 7.5791H12.0699C12.69 7.5791 13.1927 8.0818 13.1927 8.70192C13.1927 9.32203 12.69 9.82474 12.0699 9.82474H8.70146Z" fill="#171616"/>
</svg>
