<svg width="41" height="40" viewBox="0 0 41 40" fill="none" xmlns="http://www.w3.org/2000/svg">
<path d="M22.8139 31.7966C23.0593 31.6826 23.266 31.5059 23.4108 31.2863C23.5556 31.0668 23.6326 30.8133 23.6332 30.5545V23.0877C23.6332 22.72 23.7888 22.3663 24.0673 22.1053L33.1354 13.6083C33.4101 13.3515 33.6282 13.0455 33.7773 12.7083C33.9263 12.371 34.0032 12.009 34.0036 11.6434V8.05601C34.0028 7.87257 33.9638 7.69107 33.8889 7.52191C33.814 7.35274 33.7046 7.19924 33.567 7.07017C33.4294 6.94111 33.2663 6.83903 33.087 6.76976C32.9077 6.7005 32.7157 6.66542 32.5221 6.66653H8.8184C7.99914 6.66653 7.33691 7.28689 7.33691 8.05601V11.6434C7.33691 12.3803 7.64951 13.0876 8.20506 13.6083L17.2732 22.1053C17.4106 22.2336 17.5197 22.3866 17.5942 22.5553C17.6687 22.7239 17.7072 22.9049 17.7073 23.0877V31.9439C17.7073 32.9755 18.8658 33.6464 19.851 33.1846L22.8139 31.7966Z" fill="#171616"/>
</svg>
