<svg width="32" height="32" viewBox="0 0 32 32" fill="none" xmlns="http://www.w3.org/2000/svg">
<path fill-rule="evenodd" clip-rule="evenodd" d="M5.33337 15.4668C5.33337 14.2886 6.2885 13.3335 7.46671 13.3335C8.64491 13.3335 9.60004 14.2886 9.60004 15.4668C9.60004 16.645 8.64491 17.6002 7.46671 17.6002C6.2885 17.6002 5.33337 16.645 5.33337 15.4668Z" fill="#7F7B7A"/>
<path fill-rule="evenodd" clip-rule="evenodd" d="M13.8667 15.4668C13.8667 14.2886 14.8218 13.3335 16 13.3335C17.1782 13.3335 18.1334 14.2886 18.1334 15.4668C18.1334 16.645 17.1782 17.6002 16 17.6002C14.8218 17.6002 13.8667 16.645 13.8667 15.4668Z" fill="#7F7B7A"/>
<path fill-rule="evenodd" clip-rule="evenodd" d="M22.4 15.4668C22.4 14.2886 23.3552 13.3335 24.5334 13.3335C25.7116 13.3335 26.6667 14.2886 26.6667 15.4668C26.6667 16.645 25.7116 17.6002 24.5334 17.6002C23.3552 17.6002 22.4 16.645 22.4 15.4668Z" fill="#7F7B7A"/>
</svg>
