<svg width="387" height="140" viewBox="0 0 387 140" fill="none" xmlns="http://www.w3.org/2000/svg">
<rect x="17.918" y="31.6187" width="62.2295" height="72.6369" fill="white"/>
<path d="M92.785 36.8327C91.7874 34.109 90.2014 31.6358 88.1388 29.5874C86.0761 27.5389 83.5869 25.965 80.8465 24.9764C75.7253 23.3335 71.065 23.3335 61.6033 23.3335H33.1892C23.8039 23.3335 19.0642 23.3335 14.0224 24.883C11.2768 25.8794 8.78468 27.4628 6.72185 29.5215C4.65901 31.5803 3.07575 34.0641 2.08382 36.7977C0.478516 41.8578 0.478516 46.5238 0.478516 55.856V84.1414C0.478516 93.5203 0.478516 98.1542 2.03686 103.214C3.03445 105.938 4.62041 108.411 6.68307 110.46C8.74572 112.508 11.2349 114.082 13.9754 115.071C19.0642 116.667 23.7569 116.667 33.1569 116.667H61.6327C71.065 116.667 75.7576 116.667 80.8142 115.117C83.5634 114.126 86.0602 112.546 88.1282 110.49C90.1962 108.434 91.7848 105.951 92.7821 103.217C94.3874 98.1572 94.3874 93.4911 94.3874 84.1443V55.9348C94.3874 46.5559 94.3874 41.8899 92.7821 36.8298L92.785 36.8327ZM68.6497 54.858L64.9959 58.4765C64.6394 58.7993 64.1762 58.9806 63.6941 58.9859C63.212 58.9913 62.7447 58.8204 62.3811 58.5057C58.8515 55.558 54.3944 53.9337 49.7851 53.9155C45.9788 53.9155 42.1871 55.1615 42.1871 58.6282C42.1871 62.1241 46.2517 63.2943 50.9444 65.0423C59.1675 67.7795 65.9702 71.1966 65.9702 79.2068C65.9702 87.932 59.1675 93.92 48.0566 94.5737L47.0323 99.2544C46.9432 99.6802 46.7093 100.062 46.3698 100.337C46.0303 100.611 45.6062 100.761 45.1688 100.76H38.1518L37.7996 100.731C37.3001 100.617 36.8653 100.313 36.5883 99.8846C36.3113 99.4559 36.2141 98.9364 36.3176 98.4373L37.4181 93.4969C33.1977 92.4436 29.3158 90.3409 26.137 87.3864V87.3397C25.7846 86.9889 25.5867 86.5135 25.5867 86.0178C25.5867 85.522 25.7846 85.0466 26.137 84.6958L30.049 80.9256C30.4069 80.5967 30.8764 80.414 31.3638 80.414C31.8511 80.414 32.3206 80.5967 32.6785 80.9256C36.2611 84.2882 41.0204 86.1305 45.9465 86.0615C51.0353 86.0615 54.4308 83.9196 54.4308 80.5288C54.4308 77.1379 50.9913 76.2566 44.4967 73.8404C37.603 71.3921 31.0761 67.9283 31.0761 59.8276C31.0761 50.4195 38.9325 45.8293 48.2561 45.4033L49.2334 40.6146C49.3236 40.1875 49.5608 39.8051 49.9043 39.5334C50.2477 39.2617 50.6758 39.1178 51.1146 39.1264H58.0699L58.4661 39.1731C58.7082 39.2234 58.9379 39.3207 59.1421 39.4595C59.3462 39.5983 59.5208 39.7759 59.6558 39.9819C59.7907 40.188 59.8834 40.4185 59.9286 40.6603C59.9737 40.9021 59.9704 41.1504 59.9188 41.3909L58.8652 46.7252C62.413 47.8904 65.7027 49.7221 68.5558 52.1208L68.6467 52.2113C69.3804 52.9875 69.3804 54.1577 68.6467 54.8551L68.6497 54.858Z" fill="#171616"/>
<path d="M92.785 36.8212C91.7874 34.0998 90.2014 31.6287 88.1388 29.582C86.0761 27.5353 83.5869 25.9627 80.8465 24.975C75.7253 23.3335 71.065 23.3335 61.6033 23.3335H33.1892C23.8039 23.3335 19.0642 23.3335 14.0224 24.8817C11.2768 25.8772 8.78468 27.4593 6.72185 29.5162C4.65901 31.5732 3.07575 34.0549 2.08382 36.7862C0.478516 41.8419 0.478516 46.504 0.478516 55.8282V69.9588L36.5883 70.0002C33.3303 67.7094 31.0761 64.5529 31.0761 59.7964C31.0761 50.3964 38.9325 45.8101 48.2561 45.3844L49.2334 40.5999C49.3236 40.1731 49.5608 39.7911 49.9043 39.5196C50.2477 39.2481 50.6758 39.1043 51.1146 39.1129H58.0699L58.4661 39.1595C58.7082 39.2098 58.9379 39.3071 59.1421 39.4457C59.3462 39.5844 59.5208 39.7618 59.6558 39.9677C59.7907 40.1736 59.8834 40.4039 59.9286 40.6455C59.9737 40.8871 59.9704 41.1351 59.9188 41.3754L58.8652 46.7052C62.413 47.8694 65.7027 49.6995 68.5558 52.0962L68.6467 52.1866C69.3804 52.9621 69.3834 54.1342 68.6497 54.831L64.9959 58.4464C64.6394 58.7689 64.1762 58.9501 63.6941 58.9554C63.212 58.9608 62.7447 58.79 62.3811 58.4756C58.8515 55.5304 54.3944 53.9075 49.7851 53.8893C45.9788 53.8893 42.1871 55.1343 42.1871 58.598C42.1871 61.7991 45.6009 63.0486 49.7834 64.5793C50.1647 64.7188 50.5523 64.8607 50.9444 65.0066C54.9888 66.3517 58.6897 67.8612 61.4066 70.0002L94.3874 69.9996V55.9069V55.8557C94.3874 46.5191 94.3874 41.8677 92.785 36.8212Z" fill="#171616"/>
<path d="M172.069 50.7568L164.357 73.8623H161.563L149.938 50.7568H140.438L152.844 73.8623H148.485C146.026 76.084 144.573 79.1943 144.573 82.749C144.573 89.1919 149.156 93.5242 155.862 93.5242C162.233 93.5242 166.704 89.8584 169.498 82.1936L181.123 50.7568H172.069ZM156.086 86.7481C153.627 86.7481 152.174 85.1929 152.174 82.6379C152.174 81.6382 152.509 80.7495 153.068 79.9719H162.345L161.451 82.3047C160.333 85.1929 158.656 86.7481 156.086 86.7481Z" fill="#171616"/>
<path d="M215.996 85.9705C214.99 85.9705 214.319 85.304 214.319 84.3042V72.4182H208.395L217.002 59.6436H208.507L200.348 72.3071H195.094V48.5352H187.047V92.9688H195.094V79.6387H206.607V86.1926C206.607 90.7471 209.178 93.0798 213.872 93.0798C215.213 93.0798 216.107 93.0798 217.449 92.9688V85.9705H215.996Z" fill="#171616"/>
<path d="M243.156 59.0881C238.462 59.0881 234.55 61.0876 231.979 64.6423L231.532 59.6436H224.379V104.077H232.426V88.7476C234.997 91.8579 238.686 93.5242 243.156 93.5242C251.651 93.5242 257.575 86.637 257.575 76.3062C257.575 65.8643 251.875 59.0881 243.156 59.0881ZM240.697 86.8591C235.332 86.8591 232.091 82.749 232.091 76.3062C232.091 69.8633 235.332 65.7532 240.697 65.7532C246.063 65.7532 249.416 69.8633 249.416 76.3062C249.416 82.749 246.063 86.8591 240.697 86.8591Z" fill="#171616"/>
<path d="M293.789 85.9705C292.783 85.9705 292.113 85.304 292.113 84.3042V72.4182H286.189L294.795 59.6436H286.301L278.141 72.3071H272.888V48.5352H264.84V92.9688H272.888V79.6387H284.401V86.1926C284.401 90.7471 286.971 93.0798 291.666 93.0798C293.007 93.0798 293.901 93.0798 295.242 92.9688V85.9705H293.789Z" fill="#171616"/>
<path d="M306.867 78.8611H331.792C332.127 77.7502 332.127 77.0837 332.127 76.3062C332.127 65.8643 325.645 59.0881 315.697 59.0881C305.526 59.0881 298.819 66.0864 298.819 76.3062C298.819 86.1926 304.743 93.5242 316.256 93.5242C322.962 93.5242 327.768 91.0803 330.786 87.6367L325.756 82.8601C323.744 85.1929 320.615 86.8591 316.256 86.8591C311.002 86.8591 307.649 83.8599 306.867 78.8611ZM315.697 65.531C320.056 65.531 323.074 68.197 323.968 72.9736H306.979C307.873 68.3081 311.002 65.531 315.697 65.531Z" fill="#171616"/>
<path d="M377.954 59.6436V85.7483H366.665V59.6436H358.617V85.7483H347.328V59.6436H339.281V92.9688H386.002V59.6436H377.954Z" fill="#171616"/>
</svg>
