<svg width="189" height="64" viewBox="0 0 189 64" xmlns="http://www.w3.org/2000/svg">
<path d="M52.6043 16.8376C52.1511 15.5925 51.4305 14.4619 50.4934 13.5254C49.5563 12.589 48.4254 11.8695 47.1803 11.4175C44.8537 10.6665 42.7363 10.6665 38.4377 10.6665H25.5283C21.2643 10.6665 19.111 10.6665 16.8203 11.3749C15.573 11.8303 14.4407 12.5542 13.5035 13.4953C12.5663 14.4365 11.847 15.5719 11.3963 16.8216C10.667 19.1347 10.667 21.2678 10.667 25.5339V38.4644C10.667 42.7519 10.667 44.8703 11.375 47.1834C11.8282 48.4286 12.5488 49.5592 13.4859 50.4956C14.423 51.432 15.5539 52.1515 16.799 52.6035C19.111 53.3332 21.243 53.3332 25.5137 53.3332H38.451C42.7363 53.3332 44.8683 53.3332 47.1657 52.6248C48.4147 52.1715 49.5491 51.4494 50.4886 50.5094C51.4281 49.5694 52.1499 48.4345 52.603 47.1848C53.3323 44.8716 53.3323 42.7385 53.3323 38.4657V25.57C53.3323 21.2825 53.3323 19.1494 52.603 16.8363L52.6043 16.8376ZM41.639 25.0777L39.979 26.7319C39.817 26.8794 39.6066 26.9623 39.3875 26.9648C39.1685 26.9672 38.9562 26.8891 38.791 26.7452C37.1874 25.3977 35.1625 24.6552 33.0683 24.6468C31.339 24.6468 29.6163 25.2164 29.6163 26.8012C29.6163 28.3994 31.463 28.9343 33.595 29.7334C37.331 30.9847 40.4217 32.5468 40.4217 36.2086C40.4217 40.1973 37.331 42.9346 32.283 43.2335L31.8177 45.3732C31.7772 45.5678 31.6709 45.7426 31.5166 45.868C31.3624 45.9934 31.1697 46.0617 30.971 46.0615H27.783L27.623 46.0482C27.396 45.9962 27.1985 45.8573 27.0726 45.6613C26.9468 45.4653 26.9026 45.2278 26.9497 44.9997L27.4497 42.7412C25.5322 42.2597 23.7686 41.2985 22.3243 39.9478V39.9265C22.1643 39.7661 22.0743 39.5488 22.0743 39.3222C22.0743 39.0955 22.1643 38.8782 22.3243 38.7179L24.1017 36.9943C24.2643 36.844 24.4776 36.7604 24.699 36.7604C24.9204 36.7604 25.1337 36.844 25.2963 36.9943C26.924 38.5315 29.0863 39.3737 31.3243 39.3422C33.6363 39.3422 35.179 38.363 35.179 36.8129C35.179 35.2628 33.6163 34.8599 30.6657 33.7554C27.5337 32.6362 24.5683 31.0527 24.5683 27.3495C24.5683 23.0487 28.1377 20.9503 32.3737 20.7555L32.8177 18.5665C32.8586 18.3712 32.9664 18.1964 33.1225 18.0722C33.2785 17.948 33.473 17.8822 33.6723 17.8861H36.8323L37.0123 17.9075C37.1223 17.9305 37.2267 17.975 37.3194 18.0384C37.4122 18.1019 37.4915 18.183 37.5528 18.2772C37.6141 18.3714 37.6563 18.4768 37.6768 18.5873C37.6973 18.6979 37.6958 18.8114 37.6723 18.9213L37.1937 21.3599C38.8055 21.8925 40.3001 22.7299 41.5963 23.8264L41.6377 23.8678C41.971 24.2226 41.971 24.7575 41.6377 25.0764L41.639 25.0777Z" fill="#E83F1E"/>
<path d="M52.6043 16.8323C52.1511 15.5882 51.4305 14.4586 50.4934 13.523C49.5563 12.5873 48.4254 11.8684 47.1803 11.4169C44.8537 10.6665 42.7363 10.6665 38.4377 10.6665H25.5283C21.2643 10.6665 19.111 10.6665 16.8203 11.3743C15.573 11.8293 14.4407 12.5526 13.5035 13.4929C12.5663 14.4332 11.847 15.5677 11.3963 16.8163C10.667 19.1275 10.667 21.2587 10.667 25.5212V31.9809L27.0726 31.9998C25.5924 30.9526 24.5683 29.5096 24.5683 27.3352C24.5683 23.0381 28.1377 20.9415 32.3737 20.7469L32.8177 18.5597C32.8586 18.3646 32.9664 18.19 33.1225 18.0659C33.2785 17.9418 33.473 17.876 33.6723 17.8799H36.8323L37.0123 17.9013C37.1223 17.9242 37.2267 17.9687 37.3194 18.0321C37.4122 18.0955 37.4915 18.1766 37.5528 18.2707C37.6141 18.3648 37.6563 18.4701 37.6768 18.5806C37.6973 18.691 37.6958 18.8044 37.6723 18.9142L37.1937 21.3507C38.8055 21.8829 40.3001 22.7195 41.5963 23.8152L41.6377 23.8565C41.971 24.211 41.9723 24.7468 41.639 25.0654L39.979 26.7181C39.817 26.8656 39.6066 26.9484 39.3875 26.9508C39.1685 26.9533 38.9562 26.8752 38.791 26.7315C37.1874 25.3851 35.1625 24.6432 33.0683 24.6349C31.339 24.6349 29.6163 25.204 29.6163 26.7874C29.6163 28.2508 31.1673 28.822 33.0675 29.5217C33.2407 29.5855 33.4169 29.6504 33.595 29.7171C35.4325 30.332 37.1139 31.022 38.3483 31.9998L53.3323 31.9996V25.5572V25.5338C53.3323 21.2656 53.3323 19.1393 52.6043 16.8323Z" fill="#E83F1E"/>
<path d="M88.625 23.2031L85.1211 33.7656H83.8516L78.5703 23.2031H74.2539L79.8906 33.7656H77.9102C76.793 34.7812 76.1328 36.2031 76.1328 37.8281C76.1328 40.7734 78.2148 42.7539 81.2617 42.7539C84.1562 42.7539 86.1875 41.0781 87.457 37.5742L92.7383 23.2031H88.625ZM81.3633 39.6562C80.2461 39.6562 79.5859 38.9453 79.5859 37.7773C79.5859 37.3203 79.7383 36.9141 79.9922 36.5586H84.207L83.8008 37.625C83.293 38.9453 82.5312 39.6562 81.3633 39.6562ZM108.582 39.3008C108.125 39.3008 107.82 38.9961 107.82 38.5391V33.1055H105.129L109.039 27.2656H105.18L101.473 33.0547H99.0859V22.1875H95.4297V42.5H99.0859V36.4062H104.316V39.4023C104.316 41.4844 105.484 42.5508 107.617 42.5508C108.227 42.5508 108.633 42.5508 109.242 42.5V39.3008H108.582ZM120.922 27.0117C118.789 27.0117 117.012 27.9258 115.844 29.5508L115.641 27.2656H112.391V47.5781H116.047V40.5703C117.215 41.9922 118.891 42.7539 120.922 42.7539C124.781 42.7539 127.473 39.6055 127.473 34.8828C127.473 30.1094 124.883 27.0117 120.922 27.0117ZM119.805 39.707C117.367 39.707 115.895 37.8281 115.895 34.8828C115.895 31.9375 117.367 30.0586 119.805 30.0586C122.242 30.0586 123.766 31.9375 123.766 34.8828C123.766 37.8281 122.242 39.707 119.805 39.707ZM143.926 39.3008C143.469 39.3008 143.164 38.9961 143.164 38.5391V33.1055H140.473L144.383 27.2656H140.523L136.816 33.0547H134.43V22.1875H130.773V42.5H134.43V36.4062H139.66V39.4023C139.66 41.4844 140.828 42.5508 142.961 42.5508C143.57 42.5508 143.977 42.5508 144.586 42.5V39.3008H143.926ZM149.867 36.0508H161.191C161.344 35.543 161.344 35.2383 161.344 34.8828C161.344 30.1094 158.398 27.0117 153.879 27.0117C149.258 27.0117 146.211 30.2109 146.211 34.8828C146.211 39.4023 148.902 42.7539 154.133 42.7539C157.18 42.7539 159.363 41.6367 160.734 40.0625L158.449 37.8789C157.535 38.9453 156.113 39.707 154.133 39.707C151.746 39.707 150.223 38.3359 149.867 36.0508ZM153.879 29.957C155.859 29.957 157.23 31.1758 157.637 33.3594H149.918C150.324 31.2266 151.746 29.957 153.879 29.957ZM182.164 27.2656V39.1992H177.035V27.2656H173.379V39.1992H168.25V27.2656H164.594V42.5H185.82V27.2656H182.164Z" fill="#171616"/>
</svg>
