<svg width="416" height="140" viewBox="0 0 416 140" fill="none" xmlns="http://www.w3.org/2000/svg">
<rect x="40.918" y="31.6187" width="62.2295" height="72.6369" fill="white"/>
<path d="M115.785 36.8327C114.787 34.109 113.201 31.6358 111.139 29.5874C109.076 27.5389 106.587 25.965 103.846 24.9764C98.7253 23.3335 94.065 23.3335 84.6033 23.3335H56.1892C46.8039 23.3335 42.0642 23.3335 37.0224 24.883C34.2768 25.8794 31.7847 27.4628 29.7218 29.5215C27.659 31.5803 26.0757 34.0641 25.0838 36.7977C23.4785 41.8578 23.4785 46.5238 23.4785 55.856V84.1414C23.4785 93.5203 23.4785 98.1542 25.0369 103.214C26.0345 105.938 27.6204 108.411 29.6831 110.46C31.7457 112.508 34.2349 114.082 36.9754 115.071C42.0642 116.667 46.7569 116.667 56.1569 116.667H84.6327C94.065 116.667 98.7576 116.667 103.814 115.117C106.563 114.126 109.06 112.546 111.128 110.49C113.196 108.434 114.785 105.951 115.782 103.217C117.387 98.1572 117.387 93.4911 117.387 84.1443V55.9348C117.387 46.5559 117.387 41.8899 115.782 36.8298L115.785 36.8327ZM91.6497 54.858L87.9959 58.4765C87.6395 58.7993 87.1762 58.9806 86.6941 58.9859C86.212 58.9913 85.7447 58.8204 85.3811 58.5057C81.8515 55.558 77.3944 53.9337 72.7851 53.9155C68.9788 53.9155 65.1871 55.1615 65.1871 58.6282C65.1871 62.1241 69.2517 63.2943 73.9444 65.0423C82.1675 67.7795 88.9702 71.1966 88.9702 79.2068C88.9702 87.932 82.1675 93.92 71.0566 94.5737L70.0323 99.2544C69.9432 99.6802 69.7093 100.062 69.3698 100.337C69.0303 100.611 68.6062 100.761 68.1688 100.76H61.1518L60.7996 100.731C60.3001 100.617 59.8653 100.313 59.5883 99.8846C59.3113 99.4559 59.2141 98.9364 59.3176 98.4373L60.4181 93.4969C56.1977 92.4436 52.3158 90.3409 49.137 87.3864V87.3397C48.7846 86.9889 48.5867 86.5135 48.5867 86.0178C48.5867 85.522 48.7846 85.0466 49.137 84.6958L53.049 80.9256C53.4069 80.5967 53.8764 80.414 54.3638 80.414C54.8511 80.414 55.3206 80.5967 55.6785 80.9256C59.2611 84.2882 64.0204 86.1305 68.9465 86.0615C74.0353 86.0615 77.4308 83.9196 77.4308 80.5288C77.4308 77.1379 73.9913 76.2566 67.4967 73.8404C60.603 71.3921 54.0761 67.9283 54.0761 59.8276C54.0761 50.4195 61.9325 45.8293 71.2561 45.4033L72.2334 40.6146C72.3236 40.1875 72.5608 39.8051 72.9043 39.5334C73.2477 39.2617 73.6758 39.1178 74.1146 39.1264H81.0699L81.4661 39.1731C81.7082 39.2234 81.9379 39.3207 82.1421 39.4595C82.3462 39.5983 82.5208 39.7759 82.6558 39.9819C82.7907 40.188 82.8834 40.4185 82.9286 40.6603C82.9737 40.9021 82.9704 41.1504 82.9188 41.3909L81.8652 46.7252C85.413 47.8904 88.7027 49.7221 91.5558 52.1208L91.6467 52.2113C92.3804 52.9875 92.3804 54.1577 91.6467 54.8551L91.6497 54.858Z" fill="#171616"/>
<path d="M115.785 36.8212C114.787 34.0998 113.201 31.6287 111.139 29.582C109.076 27.5353 106.587 25.9627 103.846 24.975C98.7253 23.3335 94.065 23.3335 84.6033 23.3335H56.1892C46.8039 23.3335 42.0642 23.3335 37.0224 24.8817C34.2768 25.8772 31.7847 27.4593 29.7218 29.5162C27.659 31.5732 26.0757 34.0549 25.0838 36.7862C23.4785 41.8419 23.4785 46.504 23.4785 55.8282V69.9588L59.5883 70.0002C56.3303 67.7094 54.0761 64.5529 54.0761 59.7964C54.0761 50.3964 61.9325 45.8101 71.2561 45.3844L72.2334 40.5999C72.3236 40.1731 72.5608 39.7911 72.9043 39.5196C73.2477 39.2481 73.6758 39.1043 74.1146 39.1129H81.0699L81.4661 39.1595C81.7082 39.2098 81.9379 39.3071 82.1421 39.4457C82.3462 39.5844 82.5208 39.7618 82.6558 39.9677C82.7907 40.1736 82.8834 40.4039 82.9286 40.6455C82.9737 40.8871 82.9704 41.1351 82.9188 41.3754L81.8652 46.7052C85.413 47.8694 88.7027 49.6995 91.5558 52.0962L91.6467 52.1866C92.3804 52.9621 92.3834 54.1342 91.6497 54.831L87.9959 58.4464C87.6395 58.7689 87.1762 58.9501 86.6941 58.9554C86.212 58.9608 85.7447 58.79 85.3811 58.4756C81.8515 55.5304 77.3944 53.9075 72.7851 53.8893C68.9788 53.8893 65.1871 55.1343 65.1871 58.598C65.1871 61.7991 68.6009 63.0486 72.7834 64.5793C73.1647 64.7188 73.5523 64.8607 73.9444 65.0066C77.9888 66.3517 81.6897 67.8612 84.4066 70.0002L117.387 69.9996V55.9069V55.8557C117.387 46.5191 117.387 41.8677 115.785 36.8212Z" fill="#171616"/>
<path d="M195.069 50.7568L187.357 73.8623H184.563L172.938 50.7568H163.438L175.844 73.8623H171.485C169.026 76.084 167.573 79.1943 167.573 82.749C167.573 89.1919 172.156 93.5242 178.862 93.5242C185.233 93.5242 189.704 89.8584 192.498 82.1936L204.123 50.7568H195.069ZM179.086 86.7481C176.627 86.7481 175.174 85.1929 175.174 82.6379C175.174 81.6382 175.509 80.7495 176.068 79.9719H185.345L184.451 82.3047C183.333 85.1929 181.656 86.7481 179.086 86.7481Z" fill="#171616"/>
<path d="M238.996 85.9705C237.99 85.9705 237.319 85.304 237.319 84.3042V72.4182H231.395L240.002 59.6436H231.507L223.348 72.3071H218.094V48.5352H210.047V92.9688H218.094V79.6387H229.607V86.1926C229.607 90.7471 232.178 93.0798 236.872 93.0798C238.213 93.0798 239.107 93.0798 240.449 92.9688V85.9705H238.996Z" fill="#171616"/>
<path d="M266.156 59.0881C261.462 59.0881 257.55 61.0876 254.979 64.6423L254.532 59.6436H247.379V104.077H255.426V88.7476C257.997 91.8579 261.686 93.5242 266.156 93.5242C274.651 93.5242 280.575 86.637 280.575 76.3062C280.575 65.8643 274.875 59.0881 266.156 59.0881ZM263.697 86.8591C258.332 86.8591 255.091 82.749 255.091 76.3062C255.091 69.8633 258.332 65.7532 263.697 65.7532C269.063 65.7532 272.416 69.8633 272.416 76.3062C272.416 82.749 269.063 86.8591 263.697 86.8591Z" fill="#171616"/>
<path d="M316.789 85.9705C315.783 85.9705 315.113 85.304 315.113 84.3042V72.4182H309.189L317.795 59.6436H309.301L301.141 72.3071H295.888V48.5352H287.84V92.9688H295.888V79.6387H307.401V86.1926C307.401 90.7471 309.971 93.0798 314.666 93.0798C316.007 93.0798 316.901 93.0798 318.242 92.9688V85.9705H316.789Z" fill="#171616"/>
<path d="M329.867 78.8611H354.792C355.127 77.7502 355.127 77.0837 355.127 76.3062C355.127 65.8643 348.645 59.0881 338.697 59.0881C328.526 59.0881 321.819 66.0864 321.819 76.3062C321.819 86.1926 327.743 93.5242 339.256 93.5242C345.962 93.5242 350.768 91.0803 353.786 87.6367L348.756 82.8601C346.744 85.1929 343.615 86.8591 339.256 86.8591C334.002 86.8591 330.649 83.8599 329.867 78.8611ZM338.697 65.531C343.056 65.531 346.074 68.197 346.968 72.9736H329.979C330.873 68.3081 334.002 65.531 338.697 65.531Z" fill="#171616"/>
<path d="M400.954 59.6436V85.7483H389.665V59.6436H381.617V85.7483H370.328V59.6436H362.281V92.9688H409.002V59.6436H400.954Z" fill="#171616"/>
</svg>
