<svg width="36" height="36" viewBox="0 0 36 36" fill="none" xmlns="http://www.w3.org/2000/svg">
<path fill-rule="evenodd" clip-rule="evenodd" d="M6 10.3333C6 9.59695 6.59695 9 7.33333 9H28.6667C29.403 9 30 9.59695 30 10.3333C30 11.0697 29.403 11.6667 28.6667 11.6667H7.33333C6.59695 11.6667 6 11.0697 6 10.3333ZM6 18.3333C6 17.597 6.59695 17 7.33333 17H28.6667C29.403 17 30 17.597 30 18.3333C30 19.0697 29.403 19.6667 28.6667 19.6667H7.33333C6.59695 19.6667 6 19.0697 6 18.3333ZM6 26.3333C6 25.597 6.59695 25 7.33333 25H28.6667C29.403 25 30 25.597 30 26.3333C30 27.0697 29.403 27.6667 28.6667 27.6667H7.33333C6.59695 27.6667 6 27.0697 6 26.3333Z" fill="white"/>
</svg>
