<svg width="41" height="40" viewBox="0 0 41 40" fill="none" xmlns="http://www.w3.org/2000/svg">
<path d="M30.3363 22.1145V17.3332C30.3363 13.0438 27.4229 9.4305 23.4763 8.34384C23.0856 7.35984 22.1309 6.6665 21.0029 6.6665C19.8749 6.6665 18.9203 7.35984 18.5296 8.34384C14.5829 9.43184 11.6696 13.0438 11.6696 17.3332V22.1145L9.3936 24.3905C9.26954 24.5141 9.17116 24.661 9.10411 24.8228C9.03706 24.9846 9.00268 25.158 9.00293 25.3332V27.9998C9.00293 28.3535 9.14341 28.6926 9.39346 28.9426C9.6435 29.1927 9.98264 29.3332 10.3363 29.3332H31.6696C32.0232 29.3332 32.3624 29.1927 32.6124 28.9426C32.8625 28.6926 33.0029 28.3535 33.0029 27.9998V25.3332C33.0032 25.158 32.9688 24.9846 32.9018 24.8228C32.8347 24.661 32.7363 24.5141 32.6123 24.3905L30.3363 22.1145ZM30.3363 26.6665H11.6696V25.8852L13.9456 23.6092C14.0697 23.4856 14.168 23.3386 14.2351 23.1769C14.3021 23.0151 14.3365 22.8416 14.3363 22.6665V17.3332C14.3363 13.6572 17.3269 10.6665 21.0029 10.6665C24.6789 10.6665 27.6696 13.6572 27.6696 17.3332V22.6665C27.6696 23.0212 27.8096 23.3598 28.0603 23.6092L30.3363 25.8852V26.6665ZM21.0029 33.3332C21.8287 33.3342 22.6342 33.078 23.3076 32.6C23.981 32.1221 24.4887 31.4463 24.7603 30.6665H17.2456C17.5171 31.4463 18.0249 32.1221 18.6983 32.6C19.3717 33.078 20.1772 33.3342 21.0029 33.3332Z" fill="#171616"/>
</svg>
