<svg width="32" height="32" viewBox="0 0 32 32" xmlns="http://www.w3.org/2000/svg">
<path d="M26.3336 11.2357L20.784 5.68905C20.5587 5.46387 20.2504 5.3335 19.9421 5.3335H12.0684C11.7601 5.3335 11.4517 5.46387 11.2383 5.6772L5.67689 11.2357C5.46345 11.4491 5.33301 11.7572 5.33301 12.0653V19.9231C5.33301 20.2431 5.46345 20.5394 5.67689 20.7646L11.2264 26.3113C11.4517 26.5365 11.7601 26.6668 12.0684 26.6668H19.9302C20.2504 26.6668 20.5469 26.5365 20.7722 26.3231L26.3217 20.7765C26.4321 20.6661 26.5194 20.5348 26.5785 20.3904C26.6375 20.2459 26.6672 20.091 26.6656 19.935V12.0653C26.6775 11.7572 26.547 11.4491 26.3336 11.2357ZM24.3058 19.4372L19.4441 24.2965H12.5664L7.70461 19.4372V12.5631L12.5664 7.70387H19.4441L24.3058 12.5631V19.4372Z" />
<path d="M16.0051 21.926C16.66 21.926 17.1909 21.3954 17.1909 20.7408C17.1909 20.0863 16.66 19.5557 16.0051 19.5557C15.3502 19.5557 14.8193 20.0863 14.8193 20.7408C14.8193 21.3954 15.3502 21.926 16.0051 21.926Z" />
<path d="M16.0051 10.0742C15.3529 10.0742 14.8193 10.6076 14.8193 11.2594V17.1853C14.8193 17.8372 15.3529 18.3705 16.0051 18.3705C16.6573 18.3705 17.1909 17.8372 17.1909 17.1853V11.2594C17.1909 10.6076 16.6573 10.0742 16.0051 10.0742Z" />
</svg>
