<svg width="32" height="32" viewBox="0 0 32 32" xmlns="http://www.w3.org/2000/svg">
<path fill-rule="evenodd" clip-rule="evenodd" d="M8.02774 10.4986H20.6032C20.8414 10.4986 21.0699 10.5933 21.2383 10.7617C21.4068 10.9302 21.5014 11.1587 21.5014 11.3969V23.9723C21.5014 24.2106 21.4068 24.439 21.2383 24.6075C21.0699 24.7759 20.8414 24.8706 20.6032 24.8706H8.02774C7.78952 24.8706 7.56104 24.7759 7.39259 24.6075C7.22414 24.439 7.1295 24.2106 7.1295 23.9723V11.3969C7.1295 11.1587 7.22414 10.9302 7.39259 10.7617C7.56104 10.5933 7.78952 10.4986 8.02774 10.4986ZM5.33301 11.3969C5.33301 10.6822 5.61692 9.99678 6.12228 9.49142C6.62764 8.98606 7.31306 8.70215 8.02774 8.70215H20.6032C21.3179 8.70215 22.0033 8.98606 22.5087 9.49142C23.014 9.99678 23.2979 10.6822 23.2979 11.3969V23.9723C23.2979 24.687 23.014 25.3724 22.5087 25.8778C22.0033 26.3832 21.3179 26.6671 20.6032 26.6671H8.02774C7.31306 26.6671 6.62764 26.3832 6.12228 25.8778C5.61692 25.3724 5.33301 24.687 5.33301 23.9723V11.3969ZM14.3155 17.6846C12.0897 17.6846 10.2415 15.7413 9.88599 13.1909C9.81749 12.6996 10.2264 12.2951 10.7225 12.2951C11.2186 12.2951 11.6099 12.7015 11.7014 13.1891C12.0282 14.9305 13.2854 15.8881 14.3155 15.8881C15.3456 15.8881 16.6027 14.9305 16.9295 13.1891C17.021 12.7015 17.4124 12.2951 17.9084 12.2951C18.4045 12.2951 18.8134 12.6996 18.7449 13.1909C18.3894 15.7413 16.5413 17.6846 14.3155 17.6846Z" />
<path d="M11.3959 7.12999H23.9713C24.2096 7.12999 24.4381 7.22462 24.6065 7.39308C24.775 7.56153 24.8696 7.79 24.8696 8.02823V20.6037C24.8696 20.8419 24.775 21.0704 24.6065 21.2388C24.4381 21.4073 24.2096 21.5019 23.9713 21.5019V23.2984C24.686 23.2984 25.3715 23.0145 25.8768 22.5091C26.3822 22.0038 26.6661 21.3184 26.6661 20.6037V8.02823C26.6661 7.31354 26.3822 6.62813 25.8768 6.12277C25.3715 5.61741 24.686 5.3335 23.9713 5.3335H11.3959C10.6812 5.3335 9.9958 5.61741 9.49044 6.12277C8.98508 6.62813 8.70117 7.31354 8.70117 8.02823H10.4977C10.4977 7.79 10.5923 7.56153 10.7608 7.39308C10.9292 7.22462 11.1577 7.12999 11.3959 7.12999Z" />
<path d="M23.9713 23.2984V21.5019H22.1749V23.2984H23.9713Z" />
<path d="M10.4977 8.02823H8.70117V9.26332L10.4977 9.29292V8.02823Z" />
</svg>
