<svg width="28" height="21" viewBox="0 0 28 21" fill="none" xmlns="http://www.w3.org/2000/svg">
<path fill-rule="evenodd" clip-rule="evenodd" d="M0.666626 1.48148C0.666626 0.663282 1.32991 0 2.14811 0H25.8518C26.67 0 27.3333 0.663282 27.3333 1.48148C27.3333 2.29968 26.67 2.96296 25.8518 2.96296H2.14811C1.32991 2.96296 0.666626 2.29968 0.666626 1.48148ZM0.666626 7.40741C0.666626 6.58921 1.32991 5.92593 2.14811 5.92593H25.8518C26.67 5.92593 27.3333 6.58921 27.3333 7.40741C27.3333 8.22561 26.67 8.88889 25.8518 8.88889H2.14811C1.32991 8.88889 0.666626 8.22561 0.666626 7.40741ZM0.666626 13.3333C0.666626 12.5151 1.32991 11.8519 2.14811 11.8519H25.8518C26.67 11.8519 27.3333 12.5151 27.3333 13.3333C27.3333 14.1515 26.67 14.8148 25.8518 14.8148H2.14811C1.32991 14.8148 0.666626 14.1515 0.666626 13.3333ZM0.666626 19.2593C0.666626 18.4411 1.32991 17.7778 2.14811 17.7778H25.8518C26.67 17.7778 27.3333 18.4411 27.3333 19.2593C27.3333 20.0775 26.67 20.7407 25.8518 20.7407H2.14811C1.32991 20.7407 0.666626 20.0775 0.666626 19.2593Z" fill="white"/>
</svg>
