<svg width="32" height="32" viewBox="0 0 32 32" xmlns="http://www.w3.org/2000/svg">
<path fill-rule="evenodd" clip-rule="evenodd" d="M6.11406 6.11454C6.61415 5.61445 7.29243 5.3335 7.99967 5.3335H23.9997C24.7069 5.3335 25.3852 5.61445 25.8853 6.11454C26.3854 6.61464 26.6663 7.29292 26.6663 8.00016V24.0002C26.6663 24.7074 26.3854 25.3857 25.8853 25.8858C25.3852 26.3859 24.7069 26.6668 23.9997 26.6668H7.99967C7.29243 26.6668 6.61415 26.3859 6.11406 25.8858C5.61396 25.3857 5.33301 24.7074 5.33301 24.0002V8.00016C5.33301 7.29292 5.61396 6.61464 6.11406 6.11454ZM7.99967 7.46683C7.85823 7.46683 7.72257 7.52302 7.62255 7.62304C7.52253 7.72306 7.46634 7.85871 7.46634 8.00016V24.0002C7.46634 24.1416 7.52253 24.2773 7.62255 24.3773C7.72257 24.4773 7.85823 24.5335 7.99967 24.5335H23.9997C24.1411 24.5335 24.2768 24.4773 24.3768 24.3773C24.4768 24.2773 24.533 24.1416 24.533 24.0002V8.00016C24.533 7.85872 24.4768 7.72306 24.3768 7.62304C24.2768 7.52302 24.1411 7.46683 23.9997 7.46683H7.99967Z" />
<path fill-rule="evenodd" clip-rule="evenodd" d="M9.59961 11.2C9.59961 10.6109 10.0772 10.1333 10.6663 10.1333H21.3329C21.922 10.1333 22.3996 10.6109 22.3996 11.2C22.3996 11.7891 21.922 12.2666 21.3329 12.2666H10.6663C10.0772 12.2666 9.59961 11.7891 9.59961 11.2ZM9.59961 15.4666C9.59961 14.8775 10.0772 14.4 10.6663 14.4H14.9329C15.522 14.4 15.9996 14.8775 15.9996 15.4666C15.9996 16.0557 15.522 16.5333 14.9329 16.5333H10.6663C10.0772 16.5333 9.59961 16.0557 9.59961 15.4666ZM21.9993 15.7004C22.4593 16.0684 22.5339 16.7396 22.1659 17.1996L17.8992 22.533C17.5312 22.993 16.8599 23.0676 16.3999 22.6996L13.7333 20.5662C13.2733 20.1982 13.1987 19.527 13.5667 19.067C13.9347 18.6069 14.6059 18.5324 15.066 18.9004L16.8997 20.3674L20.5 15.867C20.868 15.4069 21.5393 15.3324 21.9993 15.7004Z" />
</svg>
