<svg width="32" height="32" viewBox="0 0 32 32" xmlns="http://www.w3.org/2000/svg">
<path fill-rule="evenodd" clip-rule="evenodd" d="M20.3309 7.67355C19.723 7.44373 19.0594 7.40449 18.4286 7.56106C18.0678 7.65061 17.7275 7.80178 17.4218 8.00598C17.8838 8.80846 18.133 9.7248 18.133 10.6668C18.133 11.6089 17.8838 12.5252 17.4218 13.3277C17.7275 13.5319 18.0678 13.683 18.4286 13.7726C19.0594 13.9292 19.723 13.8899 20.3309 13.6601C20.9389 13.4303 21.4625 13.0208 21.832 12.4861C22.2015 11.9514 22.3994 11.3168 22.3994 10.6668C22.3994 10.0169 22.2015 9.38231 21.832 8.8476C21.4625 8.31289 20.9389 7.90337 20.3309 7.67355ZM15.9996 14.9336C16.5677 15.3597 17.2183 15.6703 17.9147 15.8431C18.9661 16.1041 20.072 16.0387 21.0853 15.6556C22.0986 15.2726 22.9712 14.5901 23.587 13.6989C24.2029 12.8077 24.5328 11.7501 24.5328 10.6668C24.5328 9.58355 24.2029 8.52596 23.587 7.63478C22.9712 6.74359 22.0986 6.06107 21.0853 5.67803C20.072 5.29499 18.9661 5.2296 17.9147 5.49055C17.2183 5.66339 16.5677 5.97397 15.9996 6.40006C15.0818 5.71178 13.9603 5.3335 12.7997 5.3335C11.3852 5.3335 10.0286 5.8954 9.02844 6.89559C8.02824 7.89579 7.46634 9.25234 7.46634 10.6668C7.46634 12.0813 8.02824 13.4379 9.02844 14.4381C10.0286 15.4383 11.3852 16.0002 12.7997 16.0002C13.9603 16.0002 15.0818 15.6219 15.9996 14.9336ZM12.7997 7.46683C11.951 7.46683 11.137 7.80397 10.5369 8.40409C9.93682 9.0042 9.59967 9.81814 9.59967 10.6668C9.59967 11.5155 9.93682 12.3295 10.5369 12.9296C11.137 13.5297 11.951 13.8668 12.7997 13.8668C13.6484 13.8668 14.4623 13.5297 15.0624 12.9296C15.6625 12.3295 15.9997 11.5155 15.9997 10.6668C15.9997 9.81814 15.6625 9.0042 15.0624 8.40409C14.4623 7.80397 13.6484 7.46683 12.7997 7.46683ZM15.9987 17.7869C16.9969 17.3132 18.0901 17.0659 19.1999 17.0659C20.5107 17.066 21.7984 17.4111 22.9335 18.0665C24.0686 18.722 25.0111 19.6647 25.6664 20.7999C26.3216 21.9351 26.6665 23.2228 26.6663 24.5335V25.6002C26.6663 26.1893 26.1888 26.6668 25.5997 26.6668H6.39967C5.81057 26.6668 5.33301 26.1893 5.33301 25.6002V24.5335C5.33301 22.5532 6.11967 20.654 7.51994 19.2538C8.92022 17.8535 10.8194 17.0668 12.7997 17.0668C13.9168 17.0668 15.0082 17.3172 15.9987 17.7869ZM18.1323 19.3072C18.4822 19.2357 18.8398 19.1992 19.1999 19.1993C20.1361 19.1993 21.0559 19.4458 21.8667 19.914C22.6775 20.3822 23.3507 21.0555 23.8188 21.8664C24.2868 22.6773 24.5331 23.5971 24.533 24.5333L20.2663 24.5335C20.2663 22.5783 19.4995 20.7021 18.1323 19.3072ZM15.1902 19.7659C17.1021 20.9466 17.5091 22.0551 17.4982 24.5335H7.46634C7.46634 23.119 8.02824 21.7625 9.02844 20.7623C10.0286 19.7621 11.3852 19.2002 12.7997 19.2002C13.6375 19.2002 14.455 19.3973 15.1902 19.7659Z" />
</svg>
