<svg width="32" height="32" viewBox="0 0 32 32" xmlns="http://www.w3.org/2000/svg">
<path fill-rule="evenodd" clip-rule="evenodd" d="M7.27447 5.90153C7.66344 5.53782 8.19099 5.3335 8.74107 5.3335H19.1114C19.3865 5.3335 19.6503 5.43566 19.8447 5.61751L25.0299 10.466C25.2244 10.6479 25.3337 10.8945 25.3337 11.1517V24.7274C25.3337 25.2418 25.1151 25.7351 24.7262 26.0988C24.3372 26.4625 23.8097 26.6668 23.2596 26.6668H8.74107C8.19099 26.6668 7.66344 26.4625 7.27447 26.0988C6.88551 25.7351 6.66699 25.2418 6.66699 24.7274V7.27289C6.66699 6.75853 6.88551 6.26524 7.27447 5.90153ZM18.0744 7.27289H8.74107L8.74107 24.7274H23.2596V12.1214H19.1114C18.5387 12.1214 18.0744 11.6872 18.0744 11.1517V7.27289ZM20.1485 8.64425L21.793 10.182H20.1485V8.64425Z" />
<path fill-rule="evenodd" clip-rule="evenodd" d="M15.1784 15.7992C15.5833 16.1778 15.5833 16.7918 15.1784 17.1705L13.3191 18.9091L15.1784 20.6476C15.5833 21.0263 15.5833 21.6403 15.1784 22.019C14.7734 22.3977 14.1168 22.3977 13.7118 22.019L11.1192 19.5948C10.7142 19.2161 10.7142 18.6021 11.1192 18.2234L13.7118 15.7992C14.1168 15.4205 14.7734 15.4205 15.1784 15.7992Z" />
<path fill-rule="evenodd" clip-rule="evenodd" d="M20.1488 14.0605C20.7215 14.0605 21.1858 14.4947 21.1858 15.0302V18.909C21.1858 19.4446 20.7215 19.8787 20.1488 19.8787H11.8525C11.2797 19.8787 10.8154 19.4446 10.8154 18.909C10.8154 18.3735 11.2797 17.9393 11.8525 17.9393H19.1117V15.0302C19.1117 14.4947 19.576 14.0605 20.1488 14.0605Z" />
</svg>
